<svg height="512pt" viewBox="0 -19 512 512" width="512pt" xmlns="http://www.w3.org/2000/svg"><path d="m105.335938 297.542969h-84.496094c-5.820313 0-10.539063-4.71875-10.539063-10.539063v-266.398437c0-5.820313 4.71875-10.539063 10.539063-10.539063h470.789062c5.816406 0 10.535156 4.71875 10.535156 10.539063v266.398437c0 5.820313-4.71875 10.539063-10.535156 10.539063h-254.046875" fill="#ff9155"/><path d="m230.730469 302.402344v161.828125l-59.449219-63.785157-59.449219 63.785157v-161.828125" fill="#bebebe"/><path d="m84.105469 254.421875h-34.203125v-201.234375h412.664062v201.234375h-204.109375" fill="#fff"/><path d="m258.457031 238.109375c0 48.148437-39.03125 87.175781-87.175781 87.175781s-87.175781-39.027344-87.175781-87.175781c0-48.144531 39.03125-87.171875 87.175781-87.171875s87.175781 39.027344 87.175781 87.171875zm0 0" fill="#f5b955"/><path d="m219.480469 238.109375c0 26.621094-21.582031 48.199219-48.199219 48.199219s-48.199219-21.578125-48.199219-48.199219c0-26.617187 21.582031-48.195313 48.199219-48.195313s48.199219 21.578126 48.199219 48.195313zm0 0" fill="#fff"/><path d="m491.394531 0h-470.789062c-11.363281 0-20.605469 9.242188-20.605469 20.605469v266.398437c0 11.363282 9.242188 20.605469 20.605469 20.605469h80.925781v156.621094c0 4.136719 2.53125 7.851562 6.378906 9.367187 3.847656 1.519532 8.234375.523438 11.054688-2.503906l52.082031-55.882812 52.085937 55.882812c1.941407 2.085938 4.625 3.207031 7.367188 3.207031 1.238281 0 2.488281-.230469 3.683594-.703125 3.851562-1.511718 6.382812-5.230468 6.382812-9.367187v-156.621094h93.042969c5.5625 0 10.070313-4.507813 10.070313-10.066406 0-5.5625-4.507813-10.070313-10.070313-10.070313h-78.804687c4.21875-7.128906 7.554687-14.839844 9.851562-22.984375h197.675781c5.558594 0 10.066407-4.507812 10.066407-10.066406v-201.234375c0-5.558594-4.507813-10.066406-10.066407-10.066406h-412.664062c-5.5625 0-10.066407 4.507812-10.066407 10.066406v201.234375c0 5.558594 4.503907 10.066406 10.066407 10.066406h27.773437c2.296875 8.140625 5.628906 15.855469 9.847656 22.984375h-66.683593c-.257813 0-.46875-.210937-.46875-.46875v-266.398437c0-.261719.210937-.46875.46875-.46875h470.789062c.257813 0 .46875.207031.46875.46875v266.398437c0 .257813-.210937.46875-.46875.46875h-77.574219c-5.558593 0-10.066406 4.507813-10.066406 10.070313 0 5.558593 4.507813 10.066406 10.066406 10.066406h77.574219c11.363281 0 20.605469-9.242187 20.605469-20.605469v-266.398437c0-11.363281-9.242188-20.605469-20.605469-20.605469zm-320.347656 315.21875c-42.515625 0-77.105469-34.589844-77.105469-77.109375 0-42.515625 34.589844-77.105469 77.105469-77.105469 42.519531 0 77.109375 34.589844 77.109375 77.105469 0 42.519531-34.589844 77.109375-77.109375 77.109375zm10.070313 81.261719v-23.804688c0-5.558593-4.507813-10.066406-10.070313-10.066406-5.558594 0-10.066406 4.507813-10.066406 10.066406v23.804688l-39.3125 42.179687v-116.800781c14.480469 8.570313 31.367187 13.496094 49.378906 13.496094 18.015625 0 34.902344-4.925781 49.382813-13.496094v116.800781zm-121.382813-152.128907v-181.09375h392.53125v181.09375h-184.171875c.132812-2.0625.199219-4.144531.199219-6.242187 0-53.621094-43.625-97.242187-97.246094-97.242187-53.617187 0-97.242187 43.621093-97.242187 97.242187 0 2.097656.066406 4.179687.199218 6.242187zm0 0"/><path d="m171.046875 179.84375c-32.125 0-58.265625 26.136719-58.265625 58.265625 0 32.132813 26.136719 58.269531 58.265625 58.269531 32.132813 0 58.269531-26.136718 58.269531-58.269531 0-32.128906-26.140625-58.265625-58.269531-58.265625zm0 96.398438c-21.023437 0-38.128906-17.105469-38.128906-38.132813 0-21.023437 17.105469-38.128906 38.128906-38.128906 21.027344 0 38.132813 17.105469 38.132813 38.128906 0 21.027344-17.105469 38.132813-38.132813 38.132813zm0 0"/><path d="m388.382812 99.886719h36.53125c5.558594 0 10.066407-4.507813 10.066407-10.070313 0-5.558594-4.507813-10.066406-10.066407-10.066406h-36.53125c-5.5625 0-10.070312 4.507812-10.070312 10.066406 0 5.5625 4.507812 10.070313 10.070312 10.070313zm0 0"/><path d="m321.644531 140.359375h103.269531c5.558594 0 10.066407-4.503906 10.066407-10.066406s-4.507813-10.066407-10.066407-10.066407h-103.269531c-5.558593 0-10.066406 4.503907-10.066406 10.066407s4.507813 10.066406 10.066406 10.066406zm0 0"/><path d="m321.644531 180.835938h103.269531c5.558594 0 10.066407-4.507813 10.066407-10.070313 0-5.558594-4.507813-10.066406-10.066407-10.066406h-103.269531c-5.558593 0-10.066406 4.507812-10.066406 10.066406 0 5.5625 4.507813 10.070313 10.066406 10.070313zm0 0"/><path d="m321.644531 220.539062h103.269531c5.558594 0 10.066407-4.507812 10.066407-10.066406 0-5.5625-4.507813-10.070312-10.066407-10.070312h-103.269531c-5.558593 0-10.066406 4.507812-10.066406 10.070312 0 5.558594 4.507813 10.066406 10.066406 10.066406zm0 0"/><path d="m87.035156 140.359375c5.558594 0 10.066406-4.503906 10.066406-10.066406v-30.40625h17.660157c5.558593 0 10.066406-4.507813 10.066406-10.066407 0-5.5625-4.507813-10.070312-10.066406-10.070312h-27.726563c-5.5625 0-10.070312 4.507812-10.070312 10.070312v40.472657c0 5.5625 4.507812 10.066406 10.070312 10.066406zm0 0"/><path d="m144.832031 93.0625c1.582031 3.921875 5.351563 6.300781 9.335938 6.300781 1.257812 0 2.535156-.238281 3.769531-.738281 5.15625-2.082031 7.644531-7.949219 5.5625-13.105469l-.191406-.476562c-2.082032-5.152344-7.953125-7.644531-13.109375-5.558594-5.15625 2.082031-7.644531 7.949219-5.558594 13.105469zm0 0"/><path d="m382.515625 293.523438c-2.089844-5.152344-7.957031-7.636719-13.113281-5.550782-5.152344 2.089844-7.636719 7.960938-5.550782 13.113282l.191407.472656c1.589843 3.914062 5.355469 6.289062 9.335937 6.289062 1.257813 0 2.539063-.238281 3.777344-.738281 5.152344-2.089844 7.636719-7.957031 5.550781-13.113281zm0 0"/></svg>