<svg id="Layer_1" height="512" viewBox="0 0 512 512" width="512" xmlns="http://www.w3.org/2000/svg" data-name="Layer 1"><path d="m472.02 284.42a25.21 25.21 0 0 0 -34.92-7.22l-2.11 1.38 27.69 42.15 2.11-1.38a25.2 25.2 0 0 0 7.23-34.93z" fill="#6addc7"/><path d="m335.84 58h-270a29.548 29.548 0 0 0 -29.84 29.63v361c0 16.56 13.27 30.37 29.84 30.37h270a30.466 30.466 0 0 0 30.16-30.37v-361c0-16.57-13.6-29.63-30.16-29.63zm-231.75 58.79a16.61 16.61 0 1 1 16.61-16.61 16.608 16.608 0 0 1 -16.61 16.61zm62.52 0a16.61 16.61 0 1 1 16.61-16.61 16.608 16.608 0 0 1 -16.61 16.61zm62.53 0a16.61 16.61 0 1 1 16.61-16.61 16.6 16.6 0 0 1 -16.61 16.61zm62.52 0a16.61 16.61 0 1 1 16.61-16.61 16.608 16.608 0 0 1 -16.61 16.61z" fill="#cae6ee"/><path d="m365.84 384.33-64.34 42.25-13.85-21.07 161.19-105.85 13.84 21.07z" fill="#e75163"/><path d="m448.84 299.66-161.19 105.85-13.85-21.08 92.04-60.44 69.15-45.41z" fill="#fb6771"/><path d="m273.8 384.43-.64 1.2-22.37 42.28 50.71-1.33z" fill="#c79a83"/><path d="m108.2 162.9a34.725 34.725 0 1 1 -34.72 34.73 34.729 34.729 0 0 1 34.72-34.73z" fill="#81c83d"/><path d="m108.2 262.9a34.725 34.725 0 1 1 -34.72 34.73 34.729 34.729 0 0 1 34.72-34.73z" fill="#81c83d"/><path d="m108.2 362.9a34.725 34.725 0 1 1 -34.72 34.73 34.729 34.729 0 0 1 34.72-34.73z" fill="#81c83d"/><path d="m66 448.63v-361a29.548 29.548 0 0 1 29.84-29.63h-30a29.548 29.548 0 0 0 -29.84 29.63v361c0 16.56 13.27 30.37 29.84 30.37h30c-16.57 0-29.84-13.81-29.84-30.37z" fill="#aac8ce"/><g fill="#284268"><path d="m178.2 192h150a6 6 0 0 0 0-12h-150a6 6 0 0 0 0 12z"/><path d="m117.614 184.889-13.331 12.745-5.407-5.407a6 6 0 1 0 -8.484 8.485l9.555 9.556a6 6 0 0 0 8.389.094l17.571-16.8a6 6 0 1 0 -8.293-8.673z"/><path d="m108.2 156.9a40.722 40.722 0 1 0 40.722 40.721 40.767 40.767 0 0 0 -40.722-40.721zm0 69.443a28.722 28.722 0 1 1 28.722-28.722 28.754 28.754 0 0 1 -28.722 28.726z"/><path d="m178.2 292h150a6 6 0 0 0 0-12h-150a6 6 0 0 0 0 12z"/><path d="m117.614 284.889-13.331 12.745-5.407-5.407a6 6 0 1 0 -8.484 8.485l9.555 9.556a6 6 0 0 0 8.389.094l17.571-16.8a6 6 0 1 0 -8.293-8.673z"/><path d="m108.2 256.9a40.722 40.722 0 1 0 40.722 40.721 40.767 40.767 0 0 0 -40.722-40.721zm0 69.443a28.722 28.722 0 1 1 28.722-28.722 28.754 28.754 0 0 1 -28.722 28.726z"/><path d="m117.614 384.889-13.331 12.745-5.407-5.407a6 6 0 1 0 -8.484 8.485l9.555 9.556a6 6 0 0 0 8.389.094l17.571-16.8a6 6 0 1 0 -8.293-8.673z"/><path d="m108.2 356.9a40.722 40.722 0 1 0 40.722 40.721 40.767 40.767 0 0 0 -40.722-40.721zm0 69.443a28.722 28.722 0 1 1 28.722-28.722 28.754 28.754 0 0 1 -28.722 28.726z"/><path d="m178.2 212h80a6 6 0 0 0 0-12h-80a6 6 0 0 0 0 12z"/><path d="m178.2 312h80a6 6 0 0 0 0-12h-80a6 6 0 0 0 0 12z"/><path d="m59 94.1a6 6 0 0 0 -6 6v6.3a6 6 0 0 0 12 0v-6.3a6 6 0 0 0 -6-6z"/><path d="m59 119.391a6 6 0 0 0 -6 6v58a6 6 0 0 0 12 0v-58a6 6 0 0 0 -6-6z"/><path d="m457.271 267.7a31.02 31.02 0 0 0 -23.471 4.48l-61.8 40.586v-225.141c0-19.85-16.313-35.625-36.164-35.625h-37.836v-18.625a6 6 0 0 0 -12 0v18.625h-51v-18.625a6 6 0 0 0 -12 0v18.625h-50v-18.625a6 6 0 0 0 -12 0v18.625h-51v-18.625a6 6 0 0 0 -12 0v18.625h-32.164a35.582 35.582 0 0 0 -35.836 35.625v361c0 19.851 15.985 36.375 35.836 36.375h270c19.851 0 36.164-16.524 36.164-36.375v-61.165l96.086-63.1a31.217 31.217 0 0 0 -10.815-56.66zm-165.61-178.126a10.61 10.61 0 1 1 -10.61 10.61 10.621 10.621 0 0 1 10.61-10.61zm-62.523 0a10.61 10.61 0 1 1 -10.611 10.61 10.622 10.622 0 0 1 10.611-10.61zm-62.525 0a10.61 10.61 0 1 1 -10.613 10.61 10.622 10.622 0 0 1 10.613-10.61zm-62.523 0a10.61 10.61 0 1 1 -10.611 10.61 10.622 10.622 0 0 1 10.611-10.61zm255.91 359.051a24.491 24.491 0 0 1 -24.164 24.375h-270c-13.236 0-23.836-11.141-23.836-24.375v-361a23.57 23.57 0 0 1 23.836-23.625h32.164v14.388c-9 2.636-16.565 11.406-16.565 21.8a22.605 22.605 0 1 0 45.21 0 22.185 22.185 0 0 0 -16.645-21.8v-14.388h51v14.388a22.324 22.324 0 0 0 -16.8 21.8 22.634 22.634 0 0 0 45.268 0 23.2 23.2 0 0 0 -16.468-21.8v-14.388h50v14.388c-9 2.636-16.541 11.406-16.541 21.8a22.6 22.6 0 1 0 45.2 0 22.2 22.2 0 0 0 -16.659-21.8v-14.388h51v14.388a22.3 22.3 0 0 0 -16.779 21.8 22.631 22.631 0 0 0 45.262 0c0-10.39-7.483-19.16-16.483-21.8v-14.388h37.836c13.233 0 24.164 10.392 24.164 23.625v233.021l-22.537 14.8a6 6 0 0 0 -1.439 8.7 6 6 0 0 0 8.026 1.327l89.218-58.589 7.257 11.046-151.157 99.27-7.259-11.047 28.4-18.647a6 6 0 0 0 -6.587-10.031l-33.389 21.925c-.061.041-.117.092-.179.135-.152.108-.3.216-.446.338-.048.04-.09.086-.135.128h-91.573a6 6 0 0 0 0 12h84.81l-4.249 8.028c-.185-.017-.371-.028-.561-.028h-80a6 6 0 0 0 0 12h74.225l-6.937 13.105a6 6 0 0 0 5.3 8.807h.158l50.707-1.329c.123 0 .244-.024.366-.034s.261-.017.391-.037c.159-.024.313-.065.467-.1.114-.027.229-.046.343-.08a5.949 5.949 0 0 0 .767-.289c.061-.027.118-.065.178-.1a6 6 0 0 0 .566-.314c.02-.013.041-.02.059-.033l55.21-36.256zm-69.439-27.757-29.667.777 13.462-25.438zm12.655-2.593-.461-.7-6.8-10.344 151.157-99.265 7.258 11.045zm161.013-106.12-20.756-31.589a19.363 19.363 0 0 1 16.073.484 17.179 17.179 0 0 1 3.973 2.649 19.275 19.275 0 0 1 .71 28.456z"/></g></svg>