<?xml version="1.0" encoding="iso-8859-1"?>
<!-- Generator: Adobe Illustrator 19.0.0, SVG Export Plug-In . SVG Version: 6.00 Build 0)  -->
<svg version="1.1" id="Capa_1" xmlns="http://www.w3.org/2000/svg" xmlns:xlink="http://www.w3.org/1999/xlink" x="0px" y="0px"
	 viewBox="0 0 331.837 331.837" style="enable-background:new 0 0 331.837 331.837;" xml:space="preserve">
<path style="fill:#85D839;" d="M317.677,183.219L81.268,67.821c-9.04-4.683-19.828,1.877-19.828,12.059v230.796
	c0,10.182,10.788,16.742,19.828,12.059l236.407-115.398C327.455,202.272,327.455,188.286,317.677,183.219z"/>
<path d="M75.047,331.119c-3.663,0-7.337-1.004-10.631-3.007c-6.141-3.734-9.803-10.25-9.803-17.437V79.882
	c0-7.187,3.662-13.703,9.803-17.437c6.134-3.736,13.604-3.994,19.99-0.683L320.67,177.085c0.049,0.024,0.101,0.046,0.147,0.073
	c6.796,3.519,11.02,10.464,11.02,18.12c0,7.656-4.224,14.601-11.02,18.12L84.262,328.868
	C81.37,330.368,78.213,331.119,75.047,331.119z M75.003,73.126c-1.633,0-2.881,0.613-3.494,0.983
	c-0.973,0.594-3.243,2.343-3.243,5.774v230.793c0,3.43,2.27,5.18,3.243,5.774c0.976,0.59,3.574,1.804,6.617,0.227l236.556-115.47
	c2.137-1.109,3.5-3.354,3.5-5.927c0-2.55-1.34-4.777-3.587-5.967L78.275,73.955C77.083,73.342,75.974,73.126,75.003,73.126z"/>
<path d="M47.787,48.505c-1.746,0-3.494-0.667-4.826-2L25.894,29.438c-2.666-2.666-2.666-6.987,0-9.653s6.987-2.666,9.653,0
	l17.067,17.067c2.666,2.666,2.666,6.987,0,9.653C51.28,47.838,49.534,48.505,47.787,48.505z"/>
<path d="M81.92,41.679c-3.77,0-6.827-3.057-6.827-6.827V7.545c0-3.77,3.057-6.827,6.827-6.827c3.77,0,6.827,3.057,6.827,6.827
	v27.307C88.747,38.622,85.69,41.679,81.92,41.679z"/>
<path d="M34.133,75.812H6.827C3.057,75.812,0,72.755,0,68.985s3.057-6.827,6.827-6.827h27.307c3.77,0,6.827,3.057,6.827,6.827
	S37.903,75.812,34.133,75.812z"/>
<g>
</g>
<g>
</g>
<g>
</g>
<g>
</g>
<g>
</g>
<g>
</g>
<g>
</g>
<g>
</g>
<g>
</g>
<g>
</g>
<g>
</g>
<g>
</g>
<g>
</g>
<g>
</g>
<g>
</g>
</svg>
